<?xml version="1.0" encoding="UTF-8" standalone="no"?>
<!-- Created with Inkscape (http://www.inkscape.org/) -->

<svg
   xmlns:dc="http://purl.org/dc/elements/1.1/"
   xmlns:cc="http://creativecommons.org/ns#"
   xmlns:rdf="http://www.w3.org/1999/02/22-rdf-syntax-ns#"
   xmlns:svg="http://www.w3.org/2000/svg"
   xmlns="http://www.w3.org/2000/svg"
   xmlns:sodipodi="http://sodipodi.sourceforge.net/DTD/sodipodi-0.dtd"
   xmlns:inkscape="http://www.inkscape.org/namespaces/inkscape"
   version="1.1"
   id="svg2"
   xml:space="preserve"
   width="6298.6665"
   height="1253.3333"
   viewBox="0 0 6298.6665 1253.3333"
   sodipodi:docname="samfundet_logo_med_tekst.svg"
   inkscape:version="0.92.4 (5da689c313, 2019-01-14)"><metadata
     id="metadata8"><rdf:RDF><cc:Work
         rdf:about=""><dc:format>image/svg+xml</dc:format><dc:type
           rdf:resource="http://purl.org/dc/dcmitype/StillImage" /><dc:title></dc:title></cc:Work></rdf:RDF></metadata><defs
     id="defs6"><clipPath
       clipPathUnits="userSpaceOnUse"
       id="clipPath18"><path
         d="M 0,940 H 4724 V 0 H 0 Z"
         id="path16"
         inkscape:connector-curvature="0" /></clipPath></defs><sodipodi:namedview
     pagecolor="#ffffff"
     bordercolor="#666666"
     borderopacity="1"
     objecttolerance="10"
     gridtolerance="10"
     guidetolerance="10"
     inkscape:pageopacity="0"
     inkscape:pageshadow="2"
     inkscape:window-width="1920"
     inkscape:window-height="1017"
     id="namedview4"
     showgrid="false"
     inkscape:zoom="0.08"
     inkscape:cx="2623.5414"
     inkscape:cy="1284.8701"
     inkscape:window-x="-8"
     inkscape:window-y="-8"
     inkscape:window-maximized="1"
     inkscape:current-layer="g10" /><g
     id="g10"
     inkscape:groupmode="layer"
     inkscape:label="samfundet_logo_med_tekst"
     transform="matrix(1.3333333,0,0,-1.3333333,0,1253.3333)"><g
       id="g12"><g
         id="g14"
         clip-path="url(#clipPath18)"><g
           id="g20"
           transform="translate(3113.4199,335.8086)"><path
             d="M 0,0 H -28.972 C -48.271,48.71 -67.56,97.39 -86.848,146.069 -98.561,97.258 -103.064,47.97 -111.21,-0.771 h -66.528 c 0.272,5.876 -0.049,11.214 0.843,16.339 12.856,73.81 25.875,147.59 38.856,221.377 1.373,7.802 2.756,15.601 4.182,23.669 3.073,0.26 5.331,0.61 7.589,0.616 16.664,0.048 33.336,-0.233 49.991,0.166 6,0.145 9.044,-2.051 11.148,-7.449 8.344,-21.403 17.09,-42.648 25.469,-64.037 6.922,-17.672 13.506,-35.474 20.309,-53.192 1.415,-3.685 3.134,-7.253 5.666,-13.064 21.156,46.379 38.579,92.271 58.715,137.154 h 65.706 C 124.331,173.836 137.93,86.845 151.649,-0.929 H 84.537 c -6.857,48.361 -13.7,96.611 -20.543,144.862 -0.651,0.159 -1.303,0.318 -1.954,0.478 C 39.981,96.981 21.121,48.13 0,0"
             style="fill:#000000;fill-opacity:1;fill-rule:evenodd;stroke:none"
             id="path22"
             inkscape:connector-curvature="0" /></g><g
           id="g24"
           transform="translate(3758.2383,597.0693)"><path
             d="m 0,0 h 10.007 c 14.658,0 29.333,-0.399 43.97,0.163 7.755,0.298 12.773,-2.168 17.586,-8.386 36.702,-47.415 73.771,-94.544 110.736,-141.754 2.607,-3.329 5.294,-6.593 9.016,-9.646 1.622,26.589 1.373,52.977 1.486,79.352 0.111,26.267 0.024,52.535 0.024,79.531 h 66.357 v -260.745 c -1.167,-0.328 -2.399,-0.971 -3.633,-0.978 -18.656,-0.106 -37.318,0.124 -55.964,-0.322 -5.876,-0.142 -8.171,3.555 -11.007,7.158 -31.932,40.574 -63.845,81.164 -95.77,121.743 -7.595,9.654 -15.218,19.283 -23.895,30.275 -2.192,-11.629 -0.85,-21.756 -1.091,-31.776 -0.256,-10.655 -0.062,-21.32 -0.055,-31.981 0.006,-10.327 0.031,-20.655 0.038,-30.983 0.007,-10.661 0.002,-21.321 0.002,-31.982 v -31.565 H 0 Z"
             style="fill:#000000;fill-opacity:1;fill-rule:evenodd;stroke:none"
             id="path26"
             inkscape:connector-curvature="0" /></g><g
           id="g28"
           transform="translate(1181.1211,591.6279)"><path
             d="m 0,0 h 10.375 c 14.99,0 29.994,-0.366 44.966,0.159 7.136,0.251 11.444,-2.405 15.755,-7.881 36.472,-46.32 73.244,-92.406 109.931,-138.557 2.645,-3.327 5.336,-6.617 9.035,-9.714 1.428,12.908 1.024,25.663 1.079,38.393 0.055,12.992 -0.029,25.984 -0.054,38.975 -0.025,12.659 -0.066,25.317 -0.08,37.977 -0.014,12.973 -0.003,25.946 -0.003,38.757 7.218,2.265 52.27,2.87 66.511,0.924 v -257.945 c -2.389,-0.292 -4.898,-0.847 -7.411,-0.865 -16.322,-0.115 -32.655,0.207 -48.963,-0.309 -6.394,-0.202 -10.276,1.907 -14.17,6.901 -36.254,46.493 -72.781,92.771 -109.237,139.105 -2.643,3.36 -5.353,6.669 -9.671,12.039 -1.322,-10.708 -0.688,-19.141 -0.833,-27.498 -0.15,-8.659 -0.084,-17.322 -0.113,-25.983 -0.029,-8.662 -0.059,-17.323 -0.087,-25.984 -0.026,-8.328 -0.05,-16.656 -0.075,-24.984 -0.027,-8.661 -0.066,-17.322 -0.08,-25.984 -0.015,-8.609 -0.004,-17.217 -0.004,-27.254 -22.613,-0.219 -44.394,-0.151 -66.871,-0.21 z"
             style="fill:#000000;fill-opacity:1;fill-rule:evenodd;stroke:none"
             id="path30"
             inkscape:connector-curvature="0" /></g><g
           id="g32"
           transform="translate(4134.832,393.9609)"><path
             d="m 0,0 c 10.43,0 19.802,-0.809 28.991,0.145 33.389,3.462 54.13,28.007 56.808,51.786 1.295,11.483 2.25,23.37 0.756,34.731 -4.054,30.791 -23.653,50.42 -54.236,55.65 -8.473,1.449 -17.196,1.507 -25.817,1.964 -2.133,0.113 -4.314,-0.712 -6.502,-1.11 z m -68.512,-58.221 v 260.178 c 2.151,0.408 4.052,1.127 5.933,1.074 32.27,-0.898 64.566,-1.379 96.794,-3.125 12.514,-0.678 24.998,-3.728 37.278,-6.622 49.874,-11.752 82.31,-61.114 87.788,-103.489 6.898,-53.363 -14.417,-93.924 -55.764,-125.66 -17.728,-13.608 -38.321,-20.632 -60.271,-21.532 -36.238,-1.489 -72.543,-1.384 -108.82,-1.916 -0.6,-0.008 -1.205,0.431 -2.938,1.092"
             style="fill:#000000;fill-opacity:1;fill-rule:evenodd;stroke:none"
             id="path34"
             inkscape:connector-curvature="0" /></g><g
           id="g36"
           transform="translate(798.0664,533.5205)"><path
             d="m 0,0 c -2.299,-11.384 -1.877,-135.966 0.392,-143.4 9.178,0 18.56,-0.837 27.744,0.154 30.014,3.239 52.666,25.226 56.062,51.41 1.36,10.484 2.545,21.367 1.246,31.748 -3.35,26.783 -16.505,46.889 -43.495,55.435 C 28.504,-0.396 14.591,0.609 0,0 M -68.446,58.14 C -30.461,57.515 7.218,58.391 44.679,55.941 106.252,51.915 147.216,-1.27 155.9,-47.506 c 12.513,-66.613 -24.904,-115.155 -67.292,-139.707 -15.37,-8.902 -32.394,-12.955 -49.742,-13.361 -35.6,-0.833 -71.235,-0.25 -106.924,-0.25 -1.793,6.8 -2.426,242.788 -0.388,258.964"
             style="fill:#000000;fill-opacity:1;fill-rule:evenodd;stroke:none"
             id="path38"
             inkscape:connector-curvature="0" /></g><g
           id="g40"
           transform="translate(1930.4824,477.6172)"><path
             d="m 0,0 c 12.8,-2.131 27.322,-0.344 36.694,4.281 11.491,5.67 16.115,14.293 14.853,27.7 C 50.198,46.322 44.223,55.141 32.022,57.725 21.797,59.891 11.189,60.252 0,61.496 Z m 66.402,-39.571 c 27.121,-35.565 53.328,-69.932 80.404,-105.436 -3.033,-0.416 -4.797,-0.863 -6.564,-0.869 -22.661,-0.067 -45.324,0.123 -67.98,-0.226 -5.764,-0.088 -8.981,2.046 -11.996,6.712 -17.361,26.859 -35.004,53.536 -52.561,80.267 -2,3.045 -4.056,6.053 -6.957,10.378 -2.421,-8.949 -1.066,-16.705 -1.301,-24.309 -0.246,-7.991 -0.054,-15.994 -0.054,-23.992 v -23.994 -24.314 h -67.294 v 258.363 c 1.411,0.399 2.338,0.89 3.266,0.892 33.976,0.06 68.005,1.282 101.785,-3.687 16.2,-2.382 32.277,-5.821 46.697,-13.818 8.341,-4.626 16.405,-10.313 23.273,-16.899 9.627,-9.233 14.942,-20.998 15.327,-34.758 0.396,-14.105 -0.39,-28.055 -5.451,-41.332 -7.246,-19.011 -19.45,-33.192 -39.831,-38.936 -3.132,-0.883 -6.118,-2.28 -10.763,-4.042"
             style="fill:#000000;fill-opacity:1;fill-rule:evenodd;stroke:none"
             id="path42"
             inkscape:connector-curvature="0" /></g><g
           id="g44"
           transform="translate(3484.3506,596.4404)"><path
             d="m 0,0 h 65.405 c 0,-4.191 0.002,-7.763 0,-11.335 -0.025,-48.303 0.052,-96.605 -0.136,-144.908 -0.057,-14.644 4.415,-27.45 13.613,-38.706 6.906,-8.451 15.644,-13.313 26.744,-13.405 4.994,-0.042 10.016,-0.361 14.977,0.037 20.413,1.636 35.263,16.191 37.048,36.655 1.011,11.593 1.653,23.253 1.712,34.887 0.214,41.306 0.108,82.614 0.121,123.921 0.001,3.604 0,7.207 0,11.457 h 70.252 c 0,-3.855 0.009,-7.096 -10e-4,-10.337 -0.142,-50.301 -0.252,-100.603 -0.453,-150.905 -0.06,-15.455 -2.858,-30.363 -8.553,-44.84 -9.585,-24.371 -26.557,-41.423 -50.738,-50.718 -36.838,-14.161 -74.215,-14.779 -111.31,-1 -34.88,12.955 -53.515,39.236 -58.872,75.4 -1.263,8.526 -1.783,17.245 -1.724,25.868 0.339,49.967 0.949,99.931 1.488,149.896 C -0.401,-5.724 -0.187,-3.416 0,0"
             style="fill:#000000;fill-opacity:1;fill-rule:evenodd;stroke:none"
             id="path46"
             inkscape:connector-curvature="0" /></g><g
           id="g48"
           transform="translate(615.9023,591.0283)"><path
             d="m 0,0 h 67.587 c 0.175,-3.809 0.447,-7.055 0.452,-10.302 0.091,-53.326 0.011,-106.653 0.264,-159.978 0.153,-32.302 -18.048,-71.428 -58.504,-86.22 -35.299,-12.907 -71.102,-14.08 -106.729,-1.612 -34.966,12.237 -54.888,37.529 -60.794,73.876 -1.275,7.855 -1.938,15.897 -1.961,23.856 -0.135,49.994 -0.019,99.988 0.045,149.983 0.004,3.258 0.269,6.517 0.438,10.362 h 68.471 c 0,-5.526 -0.018,-10.765 0.002,-16.004 0.192,-48.659 0.469,-97.319 0.509,-145.98 0.007,-8.574 1.817,-16.48 5.816,-23.973 6.983,-13.087 17.434,-20.844 32.685,-20.845 5.972,0 12.037,-0.01 17.897,0.967 16.206,2.701 26.75,12.558 29.711,28.436 2.61,13.999 3.895,28.415 4.062,42.667 0.479,40.99 0.094,81.989 0.05,122.984 C -0.003,-8.154 0,-4.525 0,0"
             style="fill:#000000;fill-opacity:1;fill-rule:evenodd;stroke:none"
             id="path50"
             inkscape:connector-curvature="0" /></g><g
           id="g52"
           transform="translate(2792.2363,510.2891)"><path
             d="m 0,0 c -0.712,-0.12 -1.424,-0.24 -2.137,-0.36 -8.395,-24.981 -16.792,-49.961 -25.408,-75.596 H 25.35 C 16.702,-50.047 8.352,-25.023 0,0 m -37.003,86.402 h 72.36 c 33.234,-86.564 66.581,-173.423 100.306,-261.265 -3.228,-0.371 -5.671,-0.883 -8.116,-0.895 -17.988,-0.091 -35.987,0.234 -53.963,-0.267 -6.666,-0.186 -10.595,1.706 -12.884,8.046 -3.387,9.384 -7.275,18.587 -10.973,27.859 -1.337,3.352 -2.741,6.679 -4.083,9.942 H -49 c -5.295,-15.118 -10.444,-29.822 -15.769,-45.026 h -71.801 c 0.449,7.518 87.132,235.545 99.567,261.606"
             style="fill:#000000;fill-opacity:1;fill-rule:evenodd;stroke:none"
             id="path54"
             inkscape:connector-curvature="0" /></g><g
           id="g56"
           transform="translate(2449.5137,359.5381)"><path
             d="m 0,0 c 9.514,17.006 18.902,33.786 28.66,51.229 3.552,-2.747 6.36,-4.938 9.188,-7.1 17.64,-13.481 37.34,-20.27 59.683,-17.896 3.872,0.412 7.891,1.484 11.365,3.21 8.518,4.236 14.653,10.586 14.544,20.884 -0.109,10.444 -5.565,17.823 -14.79,21.851 -9.122,3.983 -18.684,6.965 -28.075,10.325 -11.27,4.032 -22.714,7.627 -33.803,12.106 -9.978,4.032 -18.771,10.137 -25.431,18.805 -6.652,8.657 -11.029,18.368 -10.852,29.436 0.176,10.949 0.088,22.064 1.931,32.795 6.131,35.713 32.127,60.961 67.928,66.564 35.621,5.574 68.687,-3.026 100.283,-19.01 0.534,-0.27 0.846,-0.98 1.986,-2.367 -8.705,-16.217 -17.616,-32.815 -26.936,-50.177 -4.431,2.751 -7.978,5.081 -11.642,7.205 -14.699,8.523 -30.203,12.231 -46.907,7.033 -3.409,-1.062 -6.894,-2.723 -9.62,-4.981 -9.192,-7.607 -9.887,-18.686 -1.323,-26.915 3.706,-3.56 8.542,-6.426 13.379,-8.231 12.147,-4.536 24.832,-7.679 36.836,-12.533 10.731,-4.338 21.475,-9.258 31.08,-15.631 C 183.957,105.673 193.006,89.86 193.51,69.64 193.877,54.925 193.182,40.359 188.787,26.168 185.045,14.086 178.406,4.011 168.81,-4.299 142.986,-26.66 112.368,-33.249 79.395,-31.055 52.301,-29.251 27.276,-20.727 4.961,-4.907 3.876,-4.138 2.762,-3.399 1.75,-2.542 1.269,-2.135 0.998,-1.479 0,0"
             style="fill:#000000;fill-opacity:1;fill-rule:evenodd;stroke:none"
             id="path58"
             inkscape:connector-curvature="0" /></g><g
           id="g60"
           transform="translate(229.9023,576.4766)"><path
             d="m 0,0 c -9.489,-17.67 -18.252,-33.987 -27.39,-51.003 -4.507,2.737 -8.049,5.023 -11.715,7.092 -14.085,7.949 -28.887,12.186 -44.982,7.384 -4.032,-1.203 -8.179,-3.159 -11.363,-5.846 -8.713,-7.353 -9.261,-18.254 -1.082,-26.224 3.667,-3.574 8.533,-6.396 13.362,-8.207 11.518,-4.316 23.581,-7.225 34.964,-11.838 11.041,-4.473 22.232,-9.282 32.068,-15.868 17.359,-11.623 26.568,-28.306 26.344,-49.832 -0.135,-13.049 -0.681,-25.975 -4.357,-38.562 -3.729,-12.77 -10.543,-23.51 -20.733,-32.285 -22.12,-19.051 -48.354,-26.195 -76.737,-26.321 -31.116,-0.137 -59.793,8.472 -85.405,26.506 -1.088,0.766 -2.188,1.523 -3.203,2.379 -0.485,0.409 -0.781,1.042 -1.574,2.145 9.21,16.55 18.56,33.354 28.377,50.997 3.137,-2.398 5.68,-4.308 8.188,-6.262 17.186,-13.388 36.367,-21.019 58.403,-18.625 6.022,0.654 12.428,2.937 17.49,6.255 13.128,8.602 13.476,25.828 0.878,35.415 -4.662,3.548 -10.382,5.99 -15.958,7.998 -12.204,4.394 -24.821,7.684 -36.895,12.387 -9.547,3.717 -19.129,7.968 -27.641,13.581 -14.849,9.79 -22.073,24.411 -22.768,42.245 -0.534,13.742 0.347,27.358 4.462,40.518 9.416,30.117 30.43,48.112 60.681,54.666 C -69.349,26.764 -34.81,17.065 0,0"
             style="fill:#000000;fill-opacity:1;fill-rule:evenodd;stroke:none"
             id="path62"
             inkscape:connector-curvature="0" /></g><g
           id="g64"
           transform="translate(4330.2715,596.4521)"><path
             d="M 0,0 H 145.489 V -56.422 H 68.114 c -0.137,-7.598 -0.309,-14.432 -0.37,-21.266 -0.062,-6.985 -0.014,-13.97 -0.014,-21.991 8.804,-1.625 17.395,-0.594 25.879,-0.77 8.995,-0.186 17.996,-0.042 26.995,-0.042 h 26.419 v -56.337 h -78.56 c -2.611,-7.913 -2.859,-35.196 -0.57,-45.988 h 77.588 c 1.352,-19.827 0.673,-38.871 0.455,-58.565 H 0 Z"
             style="fill:#000000;fill-opacity:1;fill-rule:evenodd;stroke:none"
             id="path66"
             inkscape:connector-curvature="0" /></g><g
           id="g68"
           transform="translate(1135.5117,332.2402)"><path
             d="m 0,0 h -144.629 c 0,86.117 0,171.935 0.001,257.752 6.938,2.008 132.817,2.585 145.959,0.554 v -54.308 h -79.286 v -44.269 h 75.171 v -56.571 h -75.24 V 57.6 L 0,57.6 Z"
             style="fill:#000000;fill-opacity:1;fill-rule:evenodd;stroke:none"
             id="path70"
             inkscape:connector-curvature="0" /></g><g
           id="g72"
           transform="translate(1672.1816,332.3604)"><path
             d="m 0,0 v 258.668 h 144.698 v -56.053 c -25.739,-0.813 -51.584,-0.087 -78.141,-0.627 v -42.175 h 75.014 V 102.8 H 66.366 V 57.522 h 79.241 V 0 Z"
             style="fill:#000000;fill-opacity:1;fill-rule:evenodd;stroke:none"
             id="path74"
             inkscape:connector-curvature="0" /></g><g
           id="g76"
           transform="translate(3437.1494,437.9834)"><path
             d="m 0,0 h -72.154 c -0.969,-34.344 0.272,-68.155 -0.436,-101.718 -7.567,-2.116 -54.458,-2.667 -66.964,-0.968 -1.849,7.153 -2.59,244.448 -0.728,261.029 H 6.596 v -56.407 c -25.697,-0.346 -51.517,0.103 -78.741,-0.127 -0.686,-14.858 -0.383,-29.215 0.13,-44.799 H 0 Z"
             style="fill:#000000;fill-opacity:1;fill-rule:evenodd;stroke:none"
             id="path78"
             inkscape:connector-curvature="0" /></g><g
           id="g80"
           transform="translate(4678.3145,539.7295)"><path
             d="m 0,0 h -50.944 c -1.518,-22.831 -0.511,-45.326 -0.626,-67.785 -0.118,-22.661 -0.026,-45.322 -0.026,-67.984 v -69.234 c -22.91,-0.393 -45.006,-0.33 -68.371,-0.212 V -0.164 h -56.25 c -0.103,19.426 -0.07,37.844 -0.017,56.888 H 0.179 C 2.555,46.672 2.468,7.365 0,0"
             style="fill:#000000;fill-opacity:1;fill-rule:evenodd;stroke:none"
             id="path82"
             inkscape:connector-curvature="0" /></g><g
           id="g84"
           transform="translate(431.0371,590.9541)"><path
             d="m 0,0 v -55.951 h -52.493 v -202.596 h -68.325 v 202.205 h -55.081 V 0 Z"
             style="fill:#000000;fill-opacity:1;fill-rule:evenodd;stroke:none"
             id="path86"
             inkscape:connector-curvature="0" /></g><g
           id="g88"
           transform="translate(1644.5742,536.1357)"><path
             d="m 0,0 h -54.208 v -203.769 h -67.689 V -1.541 h -54.961 V 54.901 H -0.225 C 0.53,37.029 0.071,19.253 0,0"
             style="fill:#000000;fill-opacity:1;fill-rule:evenodd;stroke:none"
             id="path90"
             inkscape:connector-curvature="0" /></g><path
           d="m 2228.561,505.703 h 76.377 v -74.306 h -76.377 z"
           style="fill:#000000;fill-opacity:1;fill-rule:evenodd;stroke:none"
           id="path92"
           inkscape:connector-curvature="0" /><g
           id="g94"
           transform="translate(2256.1738,528.1094)"><path
             d="m 0,0 h -48 v -51.639 h -25.724 c -2.084,6.891 -2.696,61.889 -0.684,76.406 24.21,1.273 48.629,0.161 73.441,0.628 C 1.699,16.975 0.381,9.179 0,0"
             style="fill:#000000;fill-opacity:1;fill-rule:evenodd;stroke:none"
             id="path96"
             inkscape:connector-curvature="0" /></g><g
           id="g98"
           transform="translate(2325.3662,409.457)"><path
             d="m 0,0 v 44.077 h 25.349 c 1.935,-6.872 2.359,-58.834 0.421,-70.554 h -73.847 c -1.709,8.548 -1.166,16.966 -0.358,26.477 z"
             style="fill:#000000;fill-opacity:1;fill-rule:evenodd;stroke:none"
             id="path100"
             inkscape:connector-curvature="0" /></g><g
           id="g102"
           transform="translate(2352.2441,476.2373)"><path
             d="m 0,0 h -26.513 v 53.748 h -49.3 v 21.717 c 6.894,2.128 59.866,2.745 75.785,0.689 C 0.065,51.258 0.001,26.151 0,0"
             style="fill:#000000;fill-opacity:1;fill-rule:evenodd;stroke:none"
             id="path104"
             inkscape:connector-curvature="0" /></g><g
           id="g106"
           transform="translate(2134.9082,599.1719)"><path
             d="m 0,0 h 72.696 c 2.404,-8.537 1.185,-16.972 0.936,-26.436 H 25.421 V -70.605 H 0.9 C -1.075,-63.532 -1.705,-20.662 0,0"
             style="fill:#000000;fill-opacity:1;fill-rule:evenodd;stroke:none"
             id="path108"
             inkscape:connector-curvature="0" /></g><g
           id="g110"
           transform="translate(2181.2227,453.7656)"><path
             d="m 0,0 h 26.654 v -43.693 h 47.49 V -70.118 C 49.925,-71.28 25.276,-70.123 0,-70.527 Z"
             style="fill:#000000;fill-opacity:1;fill-rule:evenodd;stroke:none"
             id="path112"
             inkscape:connector-curvature="0" /></g><g
           id="g114"
           transform="translate(2398.9072,528.7109)"><path
             d="m 0,0 h -24.041 c -1.796,14.3 0.429,28.908 -1.39,44.299 h -47.131 c -2.58,8.995 -1.534,17.073 -0.874,25.858 H 0 Z"
             style="fill:#000000;fill-opacity:1;fill-rule:evenodd;stroke:none"
             id="path116"
             inkscape:connector-curvature="0" /></g><g
           id="g118"
           transform="translate(2326.2344,360.5869)"><path
             d="M 0,0 H 47.72 V 48.455 H 71.695 C 73.813,41.402 74.516,-3.773 72.71,-24.18 48.813,-25.421 24.76,-24.507 0,-24.725 Z"
             style="fill:#000000;fill-opacity:1;fill-rule:evenodd;stroke:none"
             id="path120"
             inkscape:connector-curvature="0" /></g><g
           id="g122"
           transform="translate(2205.8086,361.0498)"><path
             d="m 0,0 v -24.753 h -70.099 c -1.961,7.019 -2.575,56.153 -0.825,73.197 h 24.239 V 0 Z"
             style="fill:#000000;fill-opacity:1;fill-rule:evenodd;stroke:none"
             id="path124"
             inkscape:connector-curvature="0" /></g><g
           id="g126"
           transform="translate(2228.3516,574.0342)"><path
             d="m 0,0 v 24.093 c 7.002,2.129 59.774,2.819 76.063,0.959 V 0.652 C 69.335,-1.501 14.555,-2.117 0,0"
             style="fill:#000000;fill-opacity:1;fill-rule:evenodd;stroke:none"
             id="path128"
             inkscape:connector-curvature="0" /></g><path
           d="m 2158.358,431.37 h -23.948 v 74.046 h 23.948 z"
           style="fill:#000000;fill-opacity:1;fill-rule:evenodd;stroke:none"
           id="path130"
           inkscape:connector-curvature="0" /><path
           d="m 2398.967,431.269 h -24.073 v 74.296 h 24.073 z"
           style="fill:#000000;fill-opacity:1;fill-rule:evenodd;stroke:none"
           id="path132"
           inkscape:connector-curvature="0" /><g
           id="g134"
           transform="translate(2305.0127,360.6465)"><path
             d="M 0,0 V -24.223 H -76.376 V -0.164 C -51.068,0.301 -25.812,0.063 0,0"
             style="fill:#000000;fill-opacity:1;fill-rule:evenodd;stroke:none"
             id="path136"
             inkscape:connector-curvature="0" /></g></g></g></g></svg>