<?xml version="1.0" encoding="UTF-8" standalone="no"?>
<!-- Created with Inkscape (http://www.inkscape.org/) -->

<svg
   xmlns:dc="http://purl.org/dc/elements/1.1/"
   xmlns:cc="http://creativecommons.org/ns#"
   xmlns:rdf="http://www.w3.org/1999/02/22-rdf-syntax-ns#"
   xmlns:svg="http://www.w3.org/2000/svg"
   xmlns="http://www.w3.org/2000/svg"
   xmlns:sodipodi="http://sodipodi.sourceforge.net/DTD/sodipodi-0.dtd"
   xmlns:inkscape="http://www.inkscape.org/namespaces/inkscape"
   width="93.882446mm"
   height="93.283356mm"
   viewBox="0 0 93.882446 93.283356"
   version="1.1"
   id="svg982"
   inkscape:version="0.92.4 (5da689c313, 2019-01-14)"
   sodipodi:docname="samfundet.svg">
  <defs
     id="defs976" />
  <sodipodi:namedview
     id="base"
     pagecolor="#ffffff"
     bordercolor="#666666"
     borderopacity="1.0"
     inkscape:pageopacity="0.0"
     inkscape:pageshadow="2"
     inkscape:zoom="0.35"
     inkscape:cx="-129.7272"
     inkscape:cy="-132.28792"
     inkscape:document-units="mm"
     inkscape:current-layer="layer1"
     showgrid="false"
     inkscape:window-width="1920"
     inkscape:window-height="1017"
     inkscape:window-x="-8"
     inkscape:window-y="-8"
     inkscape:window-maximized="1" />
  <metadata
     id="metadata979">
    <rdf:RDF>
      <cc:Work
         rdf:about="">
        <dc:format>image/svg+xml</dc:format>
        <dc:type
           rdf:resource="http://purl.org/dc/dcmitype/StillImage" />
        <dc:title></dc:title>
      </cc:Work>
    </rdf:RDF>
  </metadata>
  <g
     inkscape:label="Layer 1"
     inkscape:groupmode="layer"
     id="layer1"
     transform="translate(-14.290917,-20.548798)">
    <path
       d="m 47.701411,53.872996 h 26.94411 v 26.213507 h -26.94411 z"
       style="fill:#000000;fill-opacity:1;fill-rule:evenodd;stroke:none;stroke-width:0.35277775"
       id="path92"
       inkscape:connector-curvature="0" />
    <g
       id="g94"
       transform="matrix(0.35277777,0,0,-0.35277777,57.442611,45.968517)">
      <path
         d="m 0,0 h -48 v -51.639 h -25.724 c -2.084,6.891 -2.696,61.889 -0.684,76.406 24.21,1.273 48.629,0.161 73.441,0.628 C 1.699,16.975 0.381,9.179 0,0"
         style="fill:#000000;fill-opacity:1;fill-rule:evenodd;stroke:none"
         id="path96"
         inkscape:connector-curvature="0" />
    </g>
    <g
       id="g98"
       transform="matrix(0.35277777,0,0,-0.35277777,81.852141,87.826446)">
      <path
         d="m 0,0 v 44.077 h 25.349 c 1.935,-6.872 2.359,-58.834 0.421,-70.554 h -73.847 c -1.709,8.548 -1.166,16.966 -0.358,26.477 z"
         style="fill:#000000;fill-opacity:1;fill-rule:evenodd;stroke:none"
         id="path100"
         inkscape:connector-curvature="0" />
    </g>
    <g
       id="g102"
       transform="matrix(0.35277777,0,0,-0.35277777,91.334071,64.267841)">
      <path
         d="m 0,0 h -26.513 v 53.748 h -49.3 v 21.717 c 6.894,2.128 59.866,2.745 75.785,0.689 C 0.065,51.258 0.001,26.151 0,0"
         style="fill:#000000;fill-opacity:1;fill-rule:evenodd;stroke:none"
         id="path104"
         inkscape:connector-curvature="0" />
    </g>
    <g
       id="g106"
       transform="matrix(0.35277777,0,0,-0.35277777,14.662791,20.899247)">
      <path
         d="m 0,0 h 72.696 c 2.404,-8.537 1.185,-16.972 0.936,-26.436 H 25.421 V -70.605 H 0.9 C -1.075,-63.532 -1.705,-20.662 0,0"
         style="fill:#000000;fill-opacity:1;fill-rule:evenodd;stroke:none"
         id="path108"
         inkscape:connector-curvature="0" />
    </g>
    <g
       id="g110"
       transform="matrix(0.35277777,0,0,-0.35277777,31.001531,72.195358)">
      <path
         d="m 0,0 h 26.654 v -43.693 h 47.49 V -70.118 C 49.925,-71.28 25.276,-70.123 0,-70.527 Z"
         style="fill:#000000;fill-opacity:1;fill-rule:evenodd;stroke:none"
         id="path112"
         inkscape:connector-curvature="0" />
    </g>
    <g
       id="g114"
       transform="matrix(0.35277777,0,0,-0.35277777,107.79578,45.756322)">
      <path
         d="m 0,0 h -24.041 c -1.796,14.3 0.429,28.908 -1.39,44.299 h -47.131 c -2.58,8.995 -1.534,17.073 -0.874,25.858 H 0 Z"
         style="fill:#000000;fill-opacity:1;fill-rule:evenodd;stroke:none"
         id="path116"
         inkscape:connector-curvature="0" />
    </g>
    <g
       id="g118"
       transform="matrix(0.35277777,0,0,-0.35277777,82.158421,105.06673)">
      <path
         d="M 0,0 H 47.72 V 48.455 H 71.695 C 73.813,41.402 74.516,-3.773 72.71,-24.18 48.813,-25.421 24.76,-24.507 0,-24.725 Z"
         style="fill:#000000;fill-opacity:1;fill-rule:evenodd;stroke:none"
         id="path120"
         inkscape:connector-curvature="0" />
    </g>
    <g
       id="g122"
       transform="matrix(0.35277777,0,0,-0.35277777,39.674881,104.90343)">
      <path
         d="m 0,0 v -24.753 h -70.099 c -1.961,7.019 -2.575,56.153 -0.825,73.197 h 24.239 V 0 Z"
         style="fill:#000000;fill-opacity:1;fill-rule:evenodd;stroke:none"
         id="path124"
         inkscape:connector-curvature="0" />
    </g>
    <g
       id="g126"
       transform="matrix(0.35277777,0,0,-0.35277777,47.627541,29.767271)">
      <path
         d="m 0,0 v 24.093 c 7.002,2.129 59.774,2.819 76.063,0.959 V 0.652 C 69.335,-1.501 14.555,-2.117 0,0"
         style="fill:#000000;fill-opacity:1;fill-rule:evenodd;stroke:none"
         id="path128"
         inkscape:connector-curvature="0" />
    </g>
    <path
       d="m 22.935361,80.096028 h -8.44832 V 53.974244 h 8.44832 z"
       style="fill:#000000;fill-opacity:1;fill-rule:evenodd;stroke:none;stroke-width:0.35277775"
       id="path130"
       inkscape:connector-curvature="0" />
    <path
       d="M 107.81686,80.131657 H 99.324451 V 53.92168 h 8.492409 z"
       style="fill:#000000;fill-opacity:1;fill-rule:evenodd;stroke:none;stroke-width:0.35277775"
       id="path132"
       inkscape:connector-curvature="0" />
    <g
       id="g134"
       transform="matrix(0.35277777,0,0,-0.35277777,74.671881,105.0457)">
      <path
         d="M 0,0 V -24.223 H -76.376 V -0.164 C -51.068,0.301 -25.812,0.063 0,0"
         style="fill:#000000;fill-opacity:1;fill-rule:evenodd;stroke:none"
         id="path136"
         inkscape:connector-curvature="0" />
    </g>
  </g>
</svg>
